<?xml version="1.0" standalone="no"?>
<!DOCTYPE svg PUBLIC "-//W3C//DTD SVG 20010904//EN"
 "http://www.w3.org/TR/2001/REC-SVG-20010904/DTD/svg10.dtd">
<svg version="1.0" xmlns="http://www.w3.org/2000/svg"
 width="153.000000pt" height="153.000000pt" viewBox="0 0 153.000000 153.000000"
 preserveAspectRatio="xMidYMid meet">
<metadata>
Created by potrace 1.14, written by Peter Selinger 2001-2017
</metadata>
<g transform="translate(0.000000,153.000000) scale(0.100000,-0.100000)"
fill="#000000" stroke="none">
<path d="M415 1212 c-4 -4 348 -612 355 -612 3 0 35 51 70 113 36 61 115 199
177 305 61 105 111 193 110 193 -4 3 -709 4 -712 1z"/>
<path d="M353 918 c-13 -17 -343 -587 -343 -593 0 -3 158 -5 351 -5 308 0 350
2 345 15 -3 8 -31 59 -62 112 -31 54 -67 117 -80 140 -41 71 -196 338 -198
341 -2 1 -8 -3 -13 -10z"/>
<path d="M1002 631 c-94 -164 -172 -301 -172 -305 0 -3 158 -6 350 -6 193 0
350 2 350 5 0 7 -332 579 -344 592 -9 10 -51 -55 -184 -286z"/>
</g>
</svg>
